<svg preserveAspectRatio="none" width="100%" height="100%" overflow="visible" style="display: block;" viewBox="0 0 13.9696 15.1" fill="none" xmlns="http://www.w3.org/2000/svg">
<path id="Vector" d="M4.73412 12.05C4.73412 12.6467 4.97117 13.219 5.39313 13.641C5.81508 14.0629 6.38738 14.3 6.98412 14.3C7.58085 14.3 8.15315 14.0629 8.57511 13.641C8.99706 13.219 9.23412 12.6467 9.23412 12.05M1.92162 5.8625C1.92162 4.51984 2.45499 3.23217 3.40439 2.28277C4.35379 1.33337 5.64146 0.8 6.98412 0.8C8.32678 0.8 9.61444 1.33337 10.5638 2.28277C11.5132 3.23217 12.0466 4.51984 12.0466 5.8625C12.0466 8.38109 12.6302 10.4047 13.0943 11.2063C13.1436 11.2916 13.1695 11.3884 13.1696 11.487C13.1697 11.5856 13.1439 11.6824 13.0948 11.7679C13.0456 11.8533 12.9749 11.9244 12.8897 11.9739C12.8044 12.0234 12.7077 12.0497 12.6091 12.05H1.35912C1.26066 12.0494 1.16409 12.023 1.07905 11.9734C0.994013 11.9238 0.923483 11.8527 0.874514 11.7673C0.825545 11.6819 0.799851 11.5851 0.800001 11.4867C0.80015 11.3882 0.826138 11.2915 0.875366 11.2063C1.33873 10.4047 1.92162 8.38039 1.92162 5.8625Z" stroke="var(--stroke-0, white)" stroke-opacity="0.8" stroke-width="1.6" stroke-linecap="round" stroke-linejoin="round"/>
</svg>
