<svg preserveAspectRatio="none" width="100%" height="100%" overflow="visible" style="display: block;" viewBox="0 0 16.95 14.7" fill="none" xmlns="http://www.w3.org/2000/svg">
<path id="Vector" d="M13.3407 3.6L13.8968 3.77289C15.2534 4.19471 15.9318 4.40562 16.2192 4.9487C16.5066 5.49177 16.2909 6.15495 15.8594 7.48127L14.4865 11.7016C14.055 13.0279 13.8393 13.6911 13.2838 13.9721C12.7283 14.2531 12.0499 14.0422 10.6933 13.6204L4.21795 11.6071C3.83623 11.4884 2.75572 11.1974 2.475 11.1M13.35 3.6C13.35 5.1 13.35 6.6 13.35 8.1C13.35 9.51422 13.35 10.2213 12.9107 10.6607C12.4713 11.1 11.7642 11.1 10.35 11.1C8.1 11.1 5.85 11.1 3.6 11.1C2.18579 11.1 1.47868 11.1 1.03934 10.6607C0.600002 10.2213 0.600002 9.51422 0.600002 8.1C0.600002 6.6 0.600002 5.1 0.600002 3.6C0.600002 2.18579 0.600002 1.47868 1.03934 1.03934C1.47868 0.600002 2.18579 0.600002 3.6 0.600002C5.85 0.600002 8.1 0.600002 10.35 0.600002C11.7642 0.600002 12.4713 0.600002 12.9107 1.03934C13.35 1.47868 13.35 2.18579 13.35 3.6Z" stroke="var(--stroke-0, white)" stroke-opacity="0.8" stroke-width="1.2" stroke-linecap="round"/>
</svg>
