<svg preserveAspectRatio="none" width="100%" height="100%" overflow="visible" style="display: block;" viewBox="0 0 14.0572 13" fill="none" xmlns="http://www.w3.org/2000/svg">
<path id="Vector" d="M13.9632 12.2762C13.2153 11.1442 12.1739 10.207 10.9716 9.56674C10.2332 9.16774 9.419 8.9172 8.59537 8.75946C10.3657 8.12848 11.6343 6.4768 11.6343 4.52819C11.6343 2.02284 9.57048 0 7.02384 0C4.47721 0 2.40393 2.02284 2.40393 4.52819C2.40393 6.48608 3.67251 8.12848 5.44285 8.75946C4.61922 8.90792 3.80505 9.16774 3.06662 9.56674C1.85484 10.207 0.822936 11.1442 0.0750403 12.2762C-0.0669652 12.4896 -0.000695975 12.7773 0.217046 12.9165C0.302249 12.9722 0.387452 12.9814 0.482123 12.9814C0.501057 12.9814 0.519991 12.9814 0.538925 12.9814C0.557859 12.9814 0.58626 12.9814 0.605194 12.9814C4.78962 12.3041 9.11606 12.3133 13.575 13C13.575 13 13.575 13 13.5845 13C13.6697 13 13.7644 12.9722 13.8401 12.9258C14.0579 12.7866 14.1241 12.4989 13.9821 12.2855L13.9632 12.2762Z" fill="var(--fill-0, white)" fill-opacity="0.5"/>
</svg>
