<svg preserveAspectRatio="none" width="100%" height="100%" overflow="visible" style="display: block;" viewBox="0 0 16.5 16.5" fill="none" xmlns="http://www.w3.org/2000/svg">
<path id="Vector" d="M16.144 0.352656C16.2966 0.504357 16.4058 0.694043 16.4604 0.902092C16.5151 1.11014 16.5131 1.329 16.4547 1.53602L12.616 15.6175C12.5603 15.8189 12.4537 16.0026 12.3064 16.151C12.1694 16.2864 12.002 16.3871 11.8182 16.4447C11.6343 16.5023 11.4394 16.5151 11.2495 16.4821C11.0597 16.449 10.8806 16.3711 10.7271 16.2547C10.5735 16.1384 10.4501 15.987 10.367 15.8133L8.10985 10.6763C8.08221 10.6205 8.0725 10.5575 8.08206 10.496C8.09162 10.4345 8.11997 10.3775 8.16323 10.3327L11.4523 5.90723C11.5109 5.84884 11.557 5.77903 11.5875 5.70211C11.6181 5.6252 11.6324 5.54283 11.6298 5.46012C11.6271 5.37742 11.6075 5.29614 11.5721 5.22134C11.5367 5.14654 11.4863 5.07981 11.424 5.0253C11.3045 4.92523 11.1516 4.87396 10.9959 4.88178C10.8402 4.88959 10.6931 4.95591 10.5843 5.06745L6.17137 8.33976C6.1267 8.38442 6.06915 8.41394 6.0068 8.42418C5.94446 8.43443 5.88048 8.42487 5.82386 8.39685L0.684598 6.14145C0.463665 6.03531 0.280272 5.86449 0.158783 5.6517C0.0372935 5.43891 -0.0165417 5.19421 0.00442902 4.95011C0.0253998 4.70601 0.120184 4.47406 0.276189 4.28508C0.432195 4.0961 0.642038 3.95903 0.877841 3.89209L14.9648 0.0448094C15.171 -0.0129658 15.3889 -0.0149059 15.5961 0.0391889C15.8033 0.0932837 15.9924 0.201469 16.144 0.352656Z" fill="var(--fill-0, white)" fill-opacity="0.5"/>
</svg>
