<svg preserveAspectRatio="none" width="100%" height="100%" overflow="visible" style="display: block;" viewBox="0 0 10.3752 12.9907" fill="none" xmlns="http://www.w3.org/2000/svg">
<path id="Vector" d="M10.1581 12.9165C10.0824 12.9629 9.98773 12.9907 9.90252 12.9907H9.89305C7.84817 12.6752 5.82223 12.5082 3.83415 12.4804C3.82468 12.137 3.72055 11.8123 3.53121 11.5153C2.85905 10.5039 1.99755 9.63169 0.99404 8.93576C0.681627 8.72234 0.359749 8.5182 0.0189352 8.3419C0.0189352 8.3419 0.0126227 8.3388 0 8.33262C0.113604 8.20271 0.217742 8.06353 0.321879 7.92434C1.02244 6.95004 1.42952 5.77159 1.42952 4.52819C1.42952 3.2848 1.02244 2.08779 0.321879 1.13205C1.13604 0.426838 2.19635 0 3.35133 0C5.89796 0 7.97125 2.02284 7.97125 4.52819C7.97125 6.4768 6.6932 8.12848 4.92286 8.75946C5.75596 8.90792 6.56066 9.16774 7.29909 9.56674C8.51087 10.207 9.54277 11.1442 10.3001 12.2762C10.4421 12.4896 10.3759 12.7773 10.1581 12.9165Z" fill="var(--fill-0, white)" fill-opacity="0.2"/>
</svg>
