<svg preserveAspectRatio="none" width="100%" height="100%" overflow="visible" style="display: block;" viewBox="0 0 14.5376 14.5376" fill="none" xmlns="http://www.w3.org/2000/svg">
<path id="Vector" d="M7.55 3.05009L11.4875 6.98759M4.50477 13.7376H1.3625C1.21332 13.7376 1.07024 13.6783 0.964753 13.5728C0.859263 13.4674 0.8 13.3243 0.8 13.1751V10.0328C0.800069 9.88384 0.859241 9.74097 0.964531 9.63556L9.63547 0.964622C9.74095 0.859213 9.88397 0.8 10.0331 0.8C10.1822 0.8 10.3252 0.859213 10.4307 0.964622L13.573 4.10478C13.6784 4.21026 13.7376 4.35328 13.7376 4.5024C13.7376 4.65152 13.6784 4.79453 13.573 4.90001L4.90203 13.5731C4.79662 13.6783 4.65375 13.7375 4.50477 13.7376Z" stroke="var(--stroke-0, white)" stroke-width="1.6" stroke-linecap="round" stroke-linejoin="round"/>
</svg>
