<svg preserveAspectRatio="none" width="100%" height="100%" overflow="visible" style="display: block;" viewBox="0 0 10.5 12" fill="none" xmlns="http://www.w3.org/2000/svg">
<g id="Vector">
<path d="M6.54221 1.94968C7.76737 2.32016 8.09785 2.70495 8.4344 3.74049C8.45873 3.81585 8.55344 3.79219 8.56648 3.74654C8.84714 2.78224 9.37051 2.23105 10.4604 1.96288C10.5091 1.95078 10.5189 1.84956 10.4555 1.83196C9.23728 1.49063 8.80861 0.958698 8.5688 0.0362027C8.55605 -0.012205 8.46395 -0.0119299 8.45004 0.0362027C8.12855 1.16361 7.53537 1.59927 6.55554 1.83691C6.50456 1.84929 6.49153 1.9351 6.54163 1.95023L6.54221 1.94968Z" fill="var(--fill-0, white)"/>
<path d="M10.4555 10.0423C9.23728 9.70095 8.80861 9.16902 8.5688 8.24652C8.55605 8.19811 8.46395 8.19839 8.45004 8.24652C8.12855 9.37392 7.53537 9.80959 6.55554 10.0472C6.50456 10.0596 6.49153 10.1454 6.54163 10.1605C7.76679 10.531 8.09727 10.9158 8.43383 11.9514C8.45815 12.0267 8.55287 12.0031 8.5659 11.9574C8.84656 10.9931 9.36993 10.4419 10.4598 10.1738C10.5085 10.1616 10.5183 10.0604 10.4549 10.0428L10.4555 10.0423Z" fill="var(--fill-0, white)"/>
<path d="M7.75521 5.88252C5.44536 5.35114 4.66682 4.24877 4.02672 2.33474C3.99573 2.24233 3.87437 2.23985 3.84599 2.33309C3.31364 4.09419 2.37058 5.42265 0.0720319 5.88252C-0.0278926 5.9026 -0.0215206 6.08688 0.076666 6.11356C2.55653 6.78687 3.1555 7.70606 3.81297 9.64044C3.8625 9.78621 4.02209 9.74028 4.04787 9.65172C4.59325 7.77702 5.63333 6.65155 7.75086 6.12511C7.90205 6.08743 7.88004 5.91113 7.75521 5.88252Z" fill="var(--fill-0, white)"/>
</g>
</svg>
